# xmcd
#
# Track frame offsets:
#	150
#	16359
#	30144
#	54921
#	76027
#
# Disc length: 1255 seconds
#
# Revision: 1
# Processed by: cddbd v1.5.2PL0 Copyright (c) Steve Scherf et al.
# Submitted via: audiograbber 1.83.01
#
DISCID=2304e505
DTITLE=Ormondroyd - Everything's Temporary
DYEAR=2005
DGENRE=Indie
TTITLE0=Eyes On The Road
TTITLE1=Wenceslas DDD
TTITLE2=It's Gone Too Far
TTITLE3=Given Time Those Hearts Will Crack
TTITLE4=If I'd known it was the last time I'd have opened both my eyes...
EXTD=
EXTT0=
EXTT1=
EXTT2=
EXTT3=
EXTT4=
PLAYORDER=
